HIERARCHY
ROOT hips_JNT
{
  OFFSET 0 -0.948831 1.32574
  CHANNELS 6 Xposition Yposition Zposition Zrotation Xrotation Yrotation
  JOINT spine_JNT
  {
    OFFSET 0 4.13037 -0.00851196
    CHANNELS 6 Xposition Yposition Zposition Zrotation Xrotation Yrotation
    JOINT spine1_JNT
    {
      OFFSET 0 10.694 -0.00556841
      CHANNELS 6 Xposition Yposition Zposition Zrotation Xrotation Yrotation
      JOINT spine2_JNT
      {
        OFFSET 0 10.1532 -0.0126238
        CHANNELS 6 Xposition Yposition Zposition Zrotation Xrotation Yrotation
        JOINT l_shoulder_JNT
        {
          OFFSET 2.88666 12.5391 -0.534974
          CHANNELS 6 Xposition Yposition Zposition Zrotation Xrotation Yrotation
          JOINT l_arm_JNT
          {
            OFFSET 10.2653 3.8147e-05 2.00272e-05
            CHANNELS 6 Xposition Yposition Zposition Zrotation Xrotation Yrotation
            JOINT l_forearm_JNT
            {
              OFFSET 25.5729 0 0
              CHANNELS 6 Xposition Yposition Zposition Zrotation Xrotation Yrotation
              JOINT l_hand_JNT
              {
                OFFSET 19.8068 -0.345714 0
                CHANNELS 6 Xposition Yposition Zposition Zrotation Xrotation Yrotation
                JOINT l_handThumb1_JNT
                {
                  OFFSET 1.78384 -1.25249 3.61961
                  CHANNELS 6 Xposition Yposition Zposition Zrotation Xrotation Yrotation
                  JOINT l_handThumb2_JNT
                  {
                    OFFSET 2.63924 -0.0236215 -0.0531074
                    CHANNELS 6 Xposition Yposition Zposition Zrotation Xrotation Yrotation
                    JOINT l_handThumb3_JNT
                    {
                      OFFSET 2.81729 0.161941 -1.92873e-05
                      CHANNELS 6 Xposition Yposition Zposition Zrotation Xrotation Yrotation
                      JOINT l_handThumb4_JNT
                      {
                        OFFSET 3.92326 0 -1.52588e-05
                        CHANNELS 6 Xposition Yposition Zposition Zrotation Xrotation Yrotation
                        End Site
                        {
                          OFFSET 0 0 0
                        }
                      }
                    }
                  }
                }
                JOINT l_handIndex1_JNT
                {
                  OFFSET 8.21789 -0.0980638 3.75293
                  CHANNELS 6 Xposition Yposition Zposition Zrotation Xrotation Yrotation
                  JOINT l_handIndex2_JNT
                  {
                    OFFSET 3.89627 0.286875 0
                    CHANNELS 6 Xposition Yposition Zposition Zrotation Xrotation Yrotation
                    JOINT l_handIndex3_JNT
                    {
                      OFFSET 2.31843 0.158301 0
                      CHANNELS 6 Xposition Yposition Zposition Zrotation Xrotation Yrotation
                      JOINT l_handIndex4_JNT
                      {
                        OFFSET 2.56603 -2.28882e-05 0
                        CHANNELS 6 Xposition Yposition Zposition Zrotation Xrotation Yrotation
                        End Site
                        {
                          OFFSET 0 0 0
                        }
                      }
                    }
                  }
                }
                JOINT l_handPinky1_JNT
                {
                  OFFSET 7.34662 -0.990183 -3.35839
                  CHANNELS 6 Xposition Yposition Zposition Zrotation Xrotation Yrotation
                  JOINT l_handPinky2_JNT
                  {
                    OFFSET 2.92345 0.0657637 0
                    CHANNELS 6 Xposition Yposition Zposition Zrotation Xrotation Yrotation
                    JOINT l_handPinky3_JNT
                    {
                      OFFSET 1.90305 -0.0136203 0
                      CHANNELS 6 Xposition Yposition Zposition Zrotation Xrotation Yrotation
                      JOINT l_handPinky4_JNT
                      {
                        OFFSET 2.8257 0 0
                        CHANNELS 6 Xposition Yposition Zposition Zrotation Xrotation Yrotation
                        End Site
                        {
                          OFFSET 0 0 0
                        }
                      }
                    }
                  }
                }
                JOINT l_handRing1_JNT
                {
                  OFFSET 8.73626 -0.299045 -1.40318
                  CHANNELS 6 Xposition Yposition Zposition Zrotation Xrotation Yrotation
                  JOINT l_handRing2_JNT
                  {
                    OFFSET 3.6708 0.00369462 0
                    CHANNELS 6 Xposition Yposition Zposition Zrotation Xrotation Yrotation
                    JOINT l_handRing3_JNT
                    {
                      OFFSET 2.39166 0.00574558 0
                      CHANNELS 6 Xposition Yposition Zposition Zrotation Xrotation Yrotation
                      JOINT l_handRing4_JNT
                      {
                        OFFSET 2.88243 0 0
                        CHANNELS 6 Xposition Yposition Zposition Zrotation Xrotation Yrotation
                        End Site
                        {
                          OFFSET 0 0 0
                        }
                      }
                    }
                  }
                }
                JOINT l_handMiddle1_JNT
                {
                  OFFSET 9.01306 0.0540986 1.28481
                  CHANNELS 6 Xposition Yposition Zposition Zrotation Xrotation Yrotation
                  JOINT l_handMiddle2_JNT
                  {
                    OFFSET 3.91803 0.0559228 0
                    CHANNELS 6 Xposition Yposition Zposition Zrotation Xrotation Yrotation
                    JOINT l_handMiddle3_JNT
                    {
                      OFFSET 2.51718 0.0196203 0
                      CHANNELS 6 Xposition Yposition Zposition Zrotation Xrotation Yrotation
                      JOINT l_handMiddle4_JNT
                      {
                        OFFSET 3.28131 0 0
                        CHANNELS 6 Xposition Yposition Zposition Zrotation Xrotation Yrotation
                        End Site
                        {
                          OFFSET 0 0 0
                        }
                      }
                    }
                  }
                }
              }
            }
          }
        }
        JOINT r_shoulder_JNT
        {
          OFFSET -2.88677 12.5391 -0.534969
          CHANNELS 6 Xposition Yposition Zposition Zrotation Xrotation Yrotation
          JOINT r_arm_JNT
          {
            OFFSET -10.2653 -4.57764e-05 -2.00272e-05
            CHANNELS 6 Xposition Yposition Zposition Zrotation Xrotation Yrotation
            JOINT r_forearm_JNT
            {
              OFFSET -25.5729 0 0
              CHANNELS 6 Xposition Yposition Zposition Zrotation Xrotation Yrotation
              JOINT r_hand_JNT
              {
                OFFSET -19.807 -0.346 0
                CHANNELS 6 Xposition Yposition Zposition Zrotation Xrotation Yrotation
                JOINT r_handThumb1_JNT
                {
                  OFFSET -1.80121 -1.26684 3.57624
                  CHANNELS 6 Xposition Yposition Zposition Zrotation Xrotation Yrotation
                  JOINT r_handThumb2_JNT
                  {
                    OFFSET -2.63925 -0.0236185 -0.053142
                    CHANNELS 6 Xposition Yposition Zposition Zrotation Xrotation Yrotation
                    JOINT r_handThumb3_JNT
                    {
                      OFFSET -2.69898 -0.823876 3.23385e-05
                      CHANNELS 6 Xposition Yposition Zposition Zrotation Xrotation Yrotation
                      JOINT r_handThumb4_JNT
                      {
                        OFFSET -3.8753 -0.61178 -2.783e-05
                        CHANNELS 6 Xposition Yposition Zposition Zrotation Xrotation Yrotation
                        End Site
                        {
                          OFFSET 0 0 0
                        }
                      }
                    }
                  }
                }
                JOINT r_handRing1_JNT
                {
                  OFFSET -8.7541 -0.321932 -1.44759
                  CHANNELS 6 Xposition Yposition Zposition Zrotation Xrotation Yrotation
                  JOINT r_handRing2_JNT
                  {
                    OFFSET -3.67081 0.00366535 1.14975e-05
                    CHANNELS 6 Xposition Yposition Zposition Zrotation Xrotation Yrotation
                    JOINT r_handRing3_JNT
                    {
                      OFFSET -2.39166 0.00568729 0
                      CHANNELS 6 Xposition Yposition Zposition Zrotation Xrotation Yrotation
                      JOINT r_handRing4_JNT
                      {
                        OFFSET -2.88246 2.68889e-05 0
                        CHANNELS 6 Xposition Yposition Zposition Zrotation Xrotation Yrotation
                        End Site
                        {
                          OFFSET 0 0 0
                        }
                      }
                    }
                  }
                }
                JOINT r_handPinky1_JNT
                {
                  OFFSET -7.36435 -1.01523 -3.40195
                  CHANNELS 6 Xposition Yposition Zposition Zrotation Xrotation Yrotation
                  JOINT r_handPinky2_JNT
                  {
                    OFFSET -2.92337 0.0657748 -1.53088e-05
                    CHANNELS 6 Xposition Yposition Zposition Zrotation Xrotation Yrotation
                    JOINT r_handPinky3_JNT
                    {
                      OFFSET -1.90311 -0.0136937 0
                      CHANNELS 6 Xposition Yposition Zposition Zrotation Xrotation Yrotation
                      JOINT r_handPinky4_JNT
                      {
                        OFFSET -2.82564 6.28375e-05 2.02874e-05
                        CHANNELS 6 Xposition Yposition Zposition Zrotation Xrotation Yrotation
                        End Site
                        {
                          OFFSET 0 0 0
                        }
                      }
                    }
                  }
                }
                JOINT r_handMiddle1_JNT
                {
                  OFFSET -9.03092 0.0345364 1.23996
                  CHANNELS 6 Xposition Yposition Zposition Zrotation Xrotation Yrotation
                  JOINT r_handMiddle2_JNT
                  {
                    OFFSET -3.91801 0.0581239 -0.000244626
                    CHANNELS 6 Xposition Yposition Zposition Zrotation Xrotation Yrotation
                    JOINT r_handMiddle3_JNT
                    {
                      OFFSET -2.51717 0.020931 -0.000343851
                      CHANNELS 6 Xposition Yposition Zposition Zrotation Xrotation Yrotation
                      JOINT r_handMiddle4_JNT
                      {
                        OFFSET -3.281 5.34608e-05 0
                        CHANNELS 6 Xposition Yposition Zposition Zrotation Xrotation Yrotation
                        End Site
                        {
                          OFFSET 0 0 0
                        }
                      }
                    }
                  }
                }
                JOINT r_handIndex1_JNT
                {
                  OFFSET -8.23562 -0.114204 3.70825
                  CHANNELS 6 Xposition Yposition Zposition Zrotation Xrotation Yrotation
                  JOINT r_handIndex2_JNT
                  {
                    OFFSET -3.89614 0.2885 -0.000463277
                    CHANNELS 6 Xposition Yposition Zposition Zrotation Xrotation Yrotation
                    JOINT r_handIndex3_JNT
                    {
                      OFFSET -2.31839 0.159237 -0.000487052
                      CHANNELS 6 Xposition Yposition Zposition Zrotation Xrotation Yrotation
                      JOINT r_handIndex4_JNT
                      {
                        OFFSET -2.566 0 0
                        CHANNELS 6 Xposition Yposition Zposition Zrotation Xrotation Yrotation
                        End Site
                        {
                          OFFSET 0 0 0
                        }
                      }
                    }
                  }
                }
              }
            }
          }
        }
        JOINT neck_JNT
        {
          OFFSET 0 17.0656 0.263753
          CHANNELS 6 Xposition Yposition Zposition Zrotation Xrotation Yrotation
          JOINT head_JNT
          {
            OFFSET 0 8.13758 0.00775528
            CHANNELS 6 Xposition Yposition Zposition Zrotation Xrotation Yrotation
            JOINT headtop_End_JNT
            {
              OFFSET 0 29.3713 3.60361
              CHANNELS 6 Xposition Yposition Zposition Zrotation Xrotation Yrotation
              End Site
              {
                OFFSET 0 0 0
              }
            }
            JOINT l_eye_LOC
            {
              OFFSET 5.1001 12.3066 9.66418
              CHANNELS 6 Xposition Yposition Zposition Zrotation Xrotation Yrotation
              JOINT l_eye_JNT
              {
                OFFSET 0 0 0
                CHANNELS 6 Xposition Yposition Zposition Zrotation Xrotation Yrotation
                End Site
                {
                  OFFSET 0 0 0
                }
              }
            }
            JOINT r_eye_LOC
            {
              OFFSET -5.0999 12.3066 9.66418
              CHANNELS 6 Xposition Yposition Zposition Zrotation Xrotation Yrotation
              JOINT r_eye_JNT
              {
                OFFSET 0 0 0
                CHANNELS 6 Xposition Yposition Zposition Zrotation Xrotation Yrotation
                End Site
                {
                  OFFSET 0 0 0
                }
              }
            }
          }
        }
      }
    }
  }
  JOINT r_upleg_JNT
  {
    OFFSET -7.5159 1.52588e-05 0
    CHANNELS 6 Xposition Yposition Zposition Zrotation Xrotation Yrotation
    JOINT r_leg_JNT
    {
      OFFSET -0.724057 -37.7363 0.184397
      CHANNELS 6 Xposition Yposition Zposition Zrotation Xrotation Yrotation
      JOINT r_foot_JNT
      {
        OFFSET 0.000125885 -34.5752 -3.52859e-05
        CHANNELS 6 Xposition Yposition Zposition Zrotation Xrotation Yrotation
        JOINT r_toebase_JNT
        {
          OFFSET 1.14441e-05 -6.10491 11.1619
          CHANNELS 6 Xposition Yposition Zposition Zrotation Xrotation Yrotation
          End Site
          {
            OFFSET 0 0 0
          }
        }
      }
    }
  }
  JOINT l_upleg_JNT
  {
    OFFSET 7.51591 0 0
    CHANNELS 6 Xposition Yposition Zposition Zrotation Xrotation Yrotation
    JOINT l_leg_JNT
    {
      OFFSET 0.00021553 -37.7436 0.0132276
      CHANNELS 6 Xposition Yposition Zposition Zrotation Xrotation Yrotation
      JOINT l_foot_JNT
      {
        OFFSET 5.34058e-05 -34.5752 -3.57628e-05
        CHANNELS 6 Xposition Yposition Zposition Zrotation Xrotation Yrotation
        JOINT l_toebase_JNT
        {
          OFFSET 0 -6.10494 11.1619
          CHANNELS 6 Xposition Yposition Zposition Zrotation Xrotation Yrotation
          End Site
          {
            OFFSET 0 0 0
          }
        }
      }
    }
  }
}
MOTION
Frames:	2
Frame Time:	0.0333333
3.41672e-05 3.42952 7.43929 0.153528 1.49468 -9.59127 0 4.13037 -0.00851196 -2.6626 11.3239 6.97875 2.77556e-17 10.694 -0.00556841 -0.435767 3.95817 7.00167 5.55112e-17 10.1532 -0.0126238 -0.0381739 -3.97261 0.00351209 2.88666 12.5391 -0.534974 4.28481 -1.09902 1.86086 10.2653 3.8147e-05 2.00272e-05 -76.5038 9.31046 -29.0016 25.5729 0 2.86102e-06 1.28698 -1.09501 -82.835 19.8068 -0.345714 6.15208e-06 -0.629751 34.8527 14.3344 1.86006 -1.31047 3.42825 53.9306 38.8988 -85.7421 2.63924 -0.0236215 -0.0531074 -35.5451 3.09978e-06 1.7374e-05 2.8173 0.161942 -1.92873e-05 -15.102 -6.70641e-06 -2.62785e-05 3.92326 -1.77636e-15 -1.52588e-05 -1.70756e-06 2.0704e-05 2.84947e-05 8.29412 -0.156039 3.56157 -2.49817 1.43895 -9.41819 3.89627 0.286875 -4.58879e-06 -27.9421 3.59314e-05 3.061e-05 2.31843 0.158301 -1.80224e-06 -3.76036 2.85959e-05 5.61023e-06 2.56603 -2.28882e-05 7.62939e-06 8.30125e-13 -2.77476e-05 1.70755e-06 7.42284 -1.04816 -3.54975 -33.5373 -19.294 6.89712 2.92346 0.0657638 7.6377e-06 -37.2714 -7.39839e-05 -4.07292e-05 1.90305 -0.0136201 2.84755e-06 -1.91949 2.60295e-05 -2.76433e-05 2.8257 -7.6294e-06 5.72205e-06 3.4151e-06 2.13443e-07 4.26887e-07 8.81249 -0.35702 -1.59454 -33.6968 -17.3503 -3.20081 3.6708 0.00369486 2.69755e-06 -15.1107 1.60222e-05 8.15713e-07 2.39166 0.00574571 6.48073e-07 -9.51174 -0.000141059 -2.5312e-06 2.88243 7.6294e-06 2.38419e-07 6.83019e-06 1.38738e-06 3.41509e-06 9.08929 -0.00387658 1.09345 -25.7862 -3.34857 -1.60475 3.91803 0.0559229 -2.99719e-06 -26.832 -3.09551e-05 1.09565e-05 2.51718 0.0196204 -9.63e-07 -5.22725 -6.03602e-05 -1.97297e-05 3.28131 0 5.72205e-06 8.53774e-06 2.56132e-06 2.56132e-06 -2.88677 12.5391 -0.534969 -4.79277 -1.0226 -3.86117 -10.2653 -4.57764e-05 -2.00272e-05 60.0242 6.63726 21.7366 -25.5729 0 -9.53675e-06 -1.04551 -0.859237 79.3048 -19.807 -0.346 8.88179e-16 -4.24725 21.1259 7.52705 -1.84493 -1.27926 3.51172 -34.9251 45.9356 69.0786 -2.63925 -0.0236185 -0.053142 14.7197 1.10662 -0.247279 -2.69898 -0.823876 3.23319e-05 23.1088 1.11813 -0.19747 -3.8753 -0.61178 -2.783e-05 5.46415e-05 -2.71073e-05 6.61675e-06 -8.79782 -0.334355 -1.51212 36.4544 -14.5257 -3.00682 -3.67081 0.00366492 1.19561e-05 9.74562 0.000351632 3.52705e-05 -2.39166 0.00568717 -4.80439e-06 17.5027 -2.38542e-15 -9.45574e-06 -2.88246 2.68889e-05 6.63519e-06 -1.70755e-06 2.13443e-05 -5.34234e-15 -7.40806 -1.02765 -3.46647 27.6371 -6.93314 -14.9691 -2.92337 0.0657745 -1.45856e-05 39.3619 3.60278e-05 -3.83668e-05 -1.90311 -0.0136939 3.52494e-06 17.452 -4.6162e-05 1.47185e-05 -2.82564 6.28375e-05 2.02874e-05 2.73208e-05 -4.05542e-06 2.86014e-05 -9.07464 0.0221136 1.17543 15.5713 -2.38283 -2.1394 -3.91801 0.0581238 -0.000244611 14.8852 0.0001902 -7.59439e-05 -2.51717 0.020931 -0.000343851 16.0517 -6.58326e-05 -2.80401e-05 -3.281 5.34608e-05 9.21197e-07 1.70755e-06 5.54953e-06 -2.86014e-05 -8.27933 -0.126627 3.64373 -2.18045 2.63317 8.67574 -3.89614 0.2885 -0.000463663 26.5035 -6.282e-05 4.53363e-05 -2.31839 0.159237 -0.000487052 -3.18438 0.000234297 3.35145e-05 -2.566 -7.68439e-06 -1.0274e-06 -1.70755e-06 -8.53774e-07 -2.73208e-05 1.11022e-16 17.0656 0.263753 2.5864 28.1681 -1.37328 0 8.13758 0.00775528 6.39804 -24.6611 -1.97213 5.68135e-07 29.3713 3.60361 -1.95045e-07 5.2964 2.28846e-06 5.1001 12.3066 9.66418 -0.000255643 0.586901 -0 -1.28325e-05 -0.000172976 -3.87412e-05 -1.88366e-06 -6.36111e-15 -6 -5.0999 12.3066 9.66418 -0.000255643 0.586901 -0 -1.29293e-05 -0.000170602 -3.85978e-05 -1.88366e-06 -3.18055e-15 1.59028e-15 -7.5159 1.52588e-05 7.62939e-06 4.40567 -10.2267 2.28347 -0.724057 -37.7363 0.184397 -1.08051 23.4809 0.090631 0.000125885 -34.5752 -3.52859e-05 -4.2047 17.9162 2.15239 1.14441e-05 -6.10491 11.1619 0.94392 -32.2355 0.50239 7.51591 0 -7.62939e-06 7.81531 -18.5391 12.1535 0.00021553 -37.7436 0.0132276 -1.093 79.6446 0.805743 5.34058e-05 -34.5752 -3.57628e-05 -3.70116 2.669 -4.10417 -1.90735e-06 -6.10494 11.1619 -0.278492 0.798099 -0.00114901 
1.28693e-05 0.399031 11.0728 -0.0638045 -1.36068 -14.0996 4.44089e-16 4.13037 -0.00851196 -3.64658 13.331 8.48572 2.22045e-16 10.694 -0.00556841 -0.670204 5.20756 8.59173 1.66533e-16 10.1532 -0.0126238 -0.121846 -0.757394 0.0173857 2.88666 12.5391 -0.534974 2.33514 0.138269 4.50092 10.2653 3.8147e-05 2.00272e-05 -76.5985 12.583 -23.3366 25.5729 -7.10543e-15 2.86102e-06 1.25615 -0.969171 -77.4782 19.8068 -0.345714 6.15208e-06 2.05104 32.0955 12.734 1.86712 -1.30222 3.44429 54.9797 41.2919 -86.3168 2.63924 -0.0236215 -0.0531074 -37.0969 2.55891e-06 1.72973e-05 2.8173 0.161942 -1.92873e-05 -18.4072 -5.18021e-06 -2.66214e-05 3.92326 -3.55272e-15 -1.52588e-05 -1.70756e-06 2.0704e-05 2.84947e-05 8.30118 -0.147793 3.57761 -3.86022 1.31883 -6.60863 3.89627 0.286875 -4.65612e-06 -27.9323 3.52388e-05 3.13315e-05 2.31843 0.158301 -1.80224e-06 -5.92796 2.83633e-05 6.68779e-06 2.56603 -2.28882e-05 7.62939e-06 8.23764e-13 -2.77476e-05 1.70755e-06 7.4299 -1.03991 -3.53371 -34.5397 -19.1467 4.8472 2.92346 0.0657638 7.68177e-06 -37.5608 -7.30026e-05 -4.15874e-05 1.90305 -0.0136201 2.84755e-06 -2.09581 2.61144e-05 -2.75631e-05 2.8257 -7.6294e-06 5.72205e-06 3.4151e-06 2.13443e-07 4.26887e-07 8.81955 -0.348774 -1.5785 -35.0519 -16.208 -4.82291 3.6708 0.00369481 2.73797e-06 -15.1147 1.65619e-05 3.09564e-07 2.39166 0.0057457 6.69201e-07 -11.7989 -0.000140742 -8.65406e-06 2.88243 7.6294e-06 2.38419e-07 6.83019e-06 1.38738e-06 3.41509e-06 9.09635 0.00436901 1.10949 -28.0587 -3.19789 -1.82066 3.91803 0.0559228 -2.99605e-06 -26.8764 -3.09318e-05 1.09304e-05 2.51718 0.0196204 -9.63e-07 -7.37882 -5.9577e-05 -2.19819e-05 3.28131 0 5.72205e-06 8.53774e-06 2.56132e-06 2.56132e-06 -2.88677 12.5391 -0.534969 -2.33507 0.138571 -4.50101 -10.2653 -4.57764e-05 -2.00272e-05 64.2176 11.9365 18.5917 -25.5729 0 -9.53675e-06 -0.969659 -0.642304 67.9245 -19.807 -0.346 -2.66454e-15 -11.9525 28.2089 15.2101 -1.86133 -1.30126 3.46706 -30.0496 46.3174 64.9245 -2.63925 -0.0236186 -0.053142 15.7415 1.33946 -0.285921 -2.69898 -0.823876 3.23325e-05 25.8935 1.3528 -0.226367 -3.8753 -0.61178 -2.783e-05 5.46415e-05 -2.71073e-05 6.61675e-06 -8.81422 -0.356353 -1.55677 38.7311 -13.5268 -3.14533 -3.67081 0.00366489 1.19522e-05 10.1583 0.00035172 3.27021e-05 -2.39166 0.00568717 -4.80439e-06 17.6249 0 -9.45416e-06 -2.88246 2.68889e-05 6.63519e-06 -1.70755e-06 2.13443e-05 3.18055e-15 -7.42446 -1.04965 -3.51113 29.6211 -7.10478 -15.8639 -2.92337 0.0657745 -1.45984e-05 39.4881 3.52632e-05 -3.81897e-05 -1.90311 -0.0136939 3.52494e-06 16.6812 -4.63558e-05 1.40962e-05 -2.82564 6.28375e-05 2.02874e-05 2.73208e-05 -4.05542e-06 2.86014e-05 -9.09103 0.000115483 1.13078 19.0682 -2.00251 -2.3795 -3.91801 0.0581238 -0.000244622 15.2313 0.000189604 -7.72159e-05 -2.51717 0.020931 -0.000343851 16.2226 -6.59159e-05 -2.78436e-05 -3.281 5.34608e-05 9.21197e-07 1.70755e-06 5.54953e-06 -2.86014e-05 -8.29573 -0.148625 3.59907 -0.575936 2.43201 8.43164 -3.89614 0.2885 -0.0004637 26.4346 -6.34158e-05 4.49532e-05 -2.31839 0.159237 -0.000487052 -2.59594 0.000234629 3.11065e-05 -2.566 -7.68439e-06 -1.0274e-06 -1.70755e-06 -8.53774e-07 -2.73208e-05 5.55111e-17 17.0656 0.263753 3.32056 28.5555 -1.76213 -2.22045e-16 8.13758 0.00775528 6.97046 -28.932 0.671394 5.68135e-07 29.3713 3.60361 -1.95045e-07 5.2964 2.28846e-06 5.1001 12.3066 9.66418 -0.000255643 0.586901 -7.9518e-16 -1.64384e-05 -0.000198988 -4.13059e-05 0.000393362 -0.113519 -5.97703 -5.0999 12.3066 9.66418 -0.000255643 0.586901 -7.9518e-16 -1.65699e-05 -0.000196572 -4.10636e-05 0.00039336 -0.113519 0.0229722 -7.5159 1.52588e-05 7.62939e-06 4.2717 -7.36822 7.43137 -0.724057 -37.7363 0.184397 -1.04144 35.1825 0.0843379 0.000125885 -34.5752 -3.52859e-05 -2.65203 0.574567 -0.0116228 1.14441e-05 -6.10491 11.1619 0.890035 -26.2384 0.392365 7.51591 0 -7.62939e-06 13.0311 -31.6342 19.5966 0.00021553 -37.7436 0.0132276 -0.638341 73.3713 0.396931 5.34058e-05 -34.5752 -3.57628e-05 -6.36174 -15.7274 -6.22816 -1.90735e-06 -6.10494 11.1619 -0.278505 0.798095 -0.00114829 
